<svg width="51" height="50" viewBox="0 0 51 50" fill="none" xmlns="http://www.w3.org/2000/svg">
<path fill-rule="evenodd" clip-rule="evenodd" d="M43.4506 13.7981C47.3439 13.7981 50.5 10.7093 50.5 6.89907C50.5 3.08882 47.3439 0 43.4506 0C39.5575 0 36.4014 3.08882 36.4014 6.89907C36.4014 10.7093 39.5575 13.7981 43.4506 13.7981Z" fill="#02E7B8"/>
<path fill-rule="evenodd" clip-rule="evenodd" d="M43.4506 31.8987C47.3439 31.8987 50.5 28.8099 50.5 24.9997C50.5 21.1894 47.3439 18.1006 43.4506 18.1006C39.5575 18.1006 36.4014 21.1894 36.4014 24.9997C36.4014 28.8099 39.5575 31.8987 43.4506 31.8987Z" fill="#02E7B8"/>
<path fill-rule="evenodd" clip-rule="evenodd" d="M43.4506 50.0003C47.3439 50.0003 50.5 46.9115 50.5 43.1013C50.5 39.2909 47.3439 36.2021 43.4506 36.2021C39.5575 36.2021 36.4014 39.2909 36.4014 43.1013C36.4014 46.9115 39.5575 50.0003 43.4506 50.0003Z" fill="#02E7B8"/>
<path fill-rule="evenodd" clip-rule="evenodd" d="M25.5004 31.8987C29.3937 31.8987 32.5498 28.8099 32.5498 24.9997C32.5498 21.1894 29.3937 18.1006 25.5004 18.1006C21.6073 18.1006 18.4512 21.1894 18.4512 24.9997C18.4512 28.8099 21.6073 31.8987 25.5004 31.8987Z" fill="#02E7B8"/>
<path fill-rule="evenodd" clip-rule="evenodd" d="M25.5004 49.9993C29.3937 49.9993 32.5498 46.9106 32.5498 43.1002C32.5498 39.2901 29.3937 36.2012 25.5004 36.2012C21.6073 36.2012 18.4512 39.2901 18.4512 43.1002C18.4512 46.9106 21.6073 49.9993 25.5004 49.9993Z" fill="#02E7B8"/>
<path fill-rule="evenodd" clip-rule="evenodd" d="M7.54931 50.0003C11.4425 50.0003 14.5986 46.9115 14.5986 43.1013C14.5986 39.2909 11.4425 36.2021 7.54931 36.2021C3.65609 36.2021 0.5 39.2909 0.5 43.1013C0.5 46.9115 3.65609 50.0003 7.54931 50.0003Z" fill="#02E7B8"/>
</svg>
