<svg width="51" height="50" viewBox="0 0 51 50" fill="none" xmlns="http://www.w3.org/2000/svg">
<path d="M4.66699 39.5833C4.66699 35 8.41699 31.25 13.0003 31.25H21.3337C25.917 31.25 29.667 35 29.667 39.5833" stroke="#02E7B8" stroke-width="1.5" stroke-linecap="round" stroke-linejoin="round"/>
<path d="M22.3751 12.5002C25.2917 15.4169 25.2917 20.0002 22.3751 22.7086C19.4584 25.4169 14.8751 25.6252 12.1667 22.7086C9.45841 19.7919 9.25007 15.4169 11.9584 12.5002C14.6667 9.58357 19.4584 9.7919 22.3751 12.5002" stroke="#02E7B8" stroke-width="1.5" stroke-linecap="round" stroke-linejoin="round"/>
<path d="M33.834 29.167H40.084C43.6257 29.167 46.334 31.8753 46.334 35.417" stroke="#02E7B8" stroke-width="1.5" stroke-linecap="round" stroke-linejoin="round"/>
<path d="M40.7087 13.9585C42.792 16.0418 42.792 19.3752 40.7087 21.2502C38.6254 23.1252 35.292 23.3335 33.417 21.2502C31.542 19.1668 31.3337 15.8335 33.417 13.9585C35.292 12.0835 38.6254 12.0835 40.7087 13.9585" stroke="#02E7B8" stroke-width="1.5" stroke-linecap="round" stroke-linejoin="round"/>
</svg>
