<svg width="51" height="50" viewBox="0 0 51 50" fill="none" xmlns="http://www.w3.org/2000/svg">
<path d="M19.25 30.1667V42.75C19.25 43.3023 18.8023 43.75 18.25 43.75H7.75C7.19772 43.75 6.75 43.3023 6.75 42.75V21.9366C6.75 21.3225 7.03216 20.7424 7.51531 20.3632L24.2661 7.21832C24.9906 6.64977 26.0097 6.64947 26.7345 7.21759L43.4838 20.3454C43.9675 20.7245 44.25 21.3049 44.25 21.9195V42.75C44.25 43.3023 43.8057 43.75 43.2534 43.75H32.7469C32.1947 43.75 31.75 43.3023 31.75 42.75V30.1667C31.75 29.6144 31.3023 29.1667 30.75 29.1667H20.25C19.6977 29.1667 19.25 29.6144 19.25 30.1667Z" stroke="#02E7B8" stroke-width="1.5" stroke-linecap="round"/>
</svg>
