<svg width="60" height="12" viewBox="0 0 60 12" fill="none" xmlns="http://www.w3.org/2000/svg">
<path d="M11.594 10.626C10.97 10.626 10.432 10.528 9.98 10.332C9.532 10.136 9.184 9.84 8.936 9.444C8.692 9.044 8.57 8.55 8.57 7.962C8.57 7.886 8.57 7.82 8.57 7.764C8.57 7.708 8.57 7.644 8.57 7.572H9.872C9.872 7.64 9.872 7.7 9.872 7.752C9.872 7.8 9.872 7.862 9.872 7.938C9.872 8.482 10.018 8.882 10.31 9.138C10.602 9.39 11.028 9.516 11.588 9.516C12.16 9.516 12.596 9.42 12.896 9.228C13.196 9.032 13.346 8.718 13.346 8.286C13.346 7.978 13.252 7.72 13.064 7.512C12.88 7.3 12.624 7.118 12.296 6.966C11.972 6.814 11.598 6.672 11.174 6.54C10.698 6.392 10.268 6.204 9.884 5.976C9.5 5.744 9.194 5.456 8.966 5.112C8.742 4.764 8.63 4.34 8.63 3.84C8.63 3.348 8.754 2.93 9.002 2.586C9.25 2.242 9.594 1.982 10.034 1.806C10.474 1.626 10.978 1.536 11.546 1.536C12.15 1.536 12.676 1.63 13.124 1.818C13.576 2.002 13.926 2.282 14.174 2.658C14.426 3.03 14.552 3.5 14.552 4.068C14.552 4.148 14.552 4.218 14.552 4.278C14.552 4.334 14.552 4.404 14.552 4.488H13.244C13.244 4.42 13.244 4.358 13.244 4.302C13.244 4.246 13.244 4.186 13.244 4.122C13.244 3.602 13.102 3.226 12.818 2.994C12.538 2.762 12.122 2.646 11.57 2.646C11.034 2.646 10.62 2.74 10.328 2.928C10.04 3.116 9.896 3.42 9.896 3.84C9.896 4.152 9.988 4.412 10.172 4.62C10.36 4.828 10.616 5.006 10.94 5.154C11.268 5.302 11.64 5.446 12.056 5.586C12.584 5.762 13.038 5.96 13.418 6.18C13.802 6.4 14.098 6.674 14.306 7.002C14.514 7.33 14.618 7.744 14.618 8.244C14.618 8.748 14.494 9.178 14.246 9.534C13.998 9.89 13.648 10.162 13.196 10.35C12.744 10.534 12.21 10.626 11.594 10.626ZM16.6176 7.77V6.756H21.3096L21.1296 7.056C21.1296 7.032 21.1296 7.008 21.1296 6.984C21.1296 6.956 21.1296 6.932 21.1296 6.912C21.1296 6.588 21.0596 6.29 20.9196 6.018C20.7796 5.742 20.5696 5.522 20.2896 5.358C20.0136 5.19 19.6676 5.106 19.2516 5.106C18.8356 5.106 18.4696 5.196 18.1536 5.376C17.8416 5.552 17.5976 5.804 17.4216 6.132C17.2496 6.456 17.1636 6.846 17.1636 7.302C17.1636 7.766 17.2476 8.166 17.4156 8.502C17.5836 8.834 17.8256 9.09 18.1416 9.27C18.4576 9.45 18.8356 9.54 19.2756 9.54C19.5836 9.54 19.8496 9.51 20.0736 9.45C20.3016 9.386 20.4876 9.302 20.6316 9.198C20.7796 9.094 20.8916 8.982 20.9676 8.862C21.0436 8.738 21.0876 8.616 21.0996 8.496H22.3956C22.3716 8.756 22.2856 9.014 22.1376 9.27C21.9936 9.522 21.7876 9.752 21.5196 9.96C21.2556 10.164 20.9316 10.328 20.5476 10.452C20.1676 10.572 19.7296 10.632 19.2336 10.632C18.5696 10.632 17.9876 10.492 17.4876 10.212C16.9876 9.932 16.5976 9.544 16.3176 9.048C16.0376 8.548 15.8976 7.976 15.8976 7.332C15.8976 6.676 16.0396 6.1 16.3236 5.604C16.6076 5.108 17.0016 4.722 17.5056 4.446C18.0096 4.166 18.5876 4.026 19.2396 4.026C19.9036 4.026 20.4776 4.166 20.9616 4.446C21.4496 4.726 21.8256 5.112 22.0896 5.604C22.3536 6.096 22.4856 6.662 22.4856 7.302C22.4856 7.378 22.4836 7.466 22.4796 7.566C22.4756 7.666 22.4696 7.734 22.4616 7.77H16.6176ZM26.9008 10.626C26.5048 10.626 26.1208 10.56 25.7488 10.428C25.3808 10.292 25.0488 10.086 24.7528 9.81C24.4608 9.534 24.2288 9.186 24.0568 8.766C23.8848 8.346 23.7988 7.85 23.7988 7.278C23.7988 6.734 23.8848 6.258 24.0568 5.85C24.2328 5.442 24.4688 5.104 24.7648 4.836C25.0608 4.564 25.3928 4.362 25.7608 4.23C26.1328 4.094 26.5128 4.026 26.9008 4.026C27.3968 4.026 27.8528 4.138 28.2688 4.362C28.6848 4.582 29.0168 4.908 29.2648 5.34C29.5168 5.772 29.6428 6.304 29.6428 6.936C29.6428 6.948 29.6428 6.964 29.6428 6.984C29.6428 7 29.6428 7.016 29.6428 7.032L28.9468 7.026C28.9468 7.014 28.9468 7.004 28.9468 6.996C28.9468 6.984 28.9468 6.972 28.9468 6.96C28.9468 6.564 28.8608 6.234 28.6888 5.97C28.5208 5.702 28.2988 5.502 28.0228 5.37C27.7508 5.234 27.4588 5.166 27.1468 5.166C26.8068 5.166 26.4848 5.236 26.1808 5.376C25.8808 5.512 25.6368 5.736 25.4488 6.048C25.2608 6.356 25.1668 6.768 25.1668 7.284C25.1668 7.804 25.2608 8.226 25.4488 8.55C25.6368 8.874 25.8808 9.112 26.1808 9.264C26.4848 9.412 26.8068 9.486 27.1468 9.486C27.4628 9.486 27.7568 9.416 28.0288 9.276C28.3008 9.136 28.5208 8.93 28.6888 8.658C28.8608 8.382 28.9468 8.048 28.9468 7.656L29.6428 7.71C29.6428 8.354 29.5168 8.894 29.2648 9.33C29.0168 9.762 28.6848 10.086 28.2688 10.302C27.8528 10.518 27.3968 10.626 26.9008 10.626ZM30.2488 10.5H28.9468V4.128H30.2488V10.5ZM32.0167 10.5V4.128H33.3187V6.162L32.9707 6.006C32.9987 5.746 33.0647 5.498 33.1687 5.262C33.2727 5.026 33.4107 4.816 33.5827 4.632C33.7587 4.444 33.9747 4.296 34.2307 4.188C34.4867 4.08 34.7827 4.026 35.1187 4.026C35.3747 4.026 35.5807 4.046 35.7367 4.086C35.8967 4.126 35.9947 4.158 36.0307 4.182L35.7547 5.406C35.7147 5.378 35.6327 5.342 35.5087 5.298C35.3887 5.254 35.2207 5.232 35.0047 5.232C34.6767 5.232 34.4047 5.29 34.1887 5.406C33.9727 5.522 33.8007 5.676 33.6727 5.868C33.5447 6.06 33.4527 6.27 33.3967 6.498C33.3447 6.722 33.3187 6.948 33.3187 7.176V10.5H32.0167ZM40.172 10.626C39.532 10.626 38.958 10.492 38.45 10.224C37.946 9.952 37.548 9.566 37.256 9.066C36.968 8.566 36.824 7.978 36.824 7.302C36.824 6.626 36.968 6.044 37.256 5.556C37.548 5.064 37.946 4.686 38.45 4.422C38.958 4.158 39.532 4.026 40.172 4.026C40.656 4.026 41.086 4.1 41.462 4.248C41.838 4.392 42.156 4.584 42.416 4.824C42.676 5.064 42.874 5.328 43.01 5.616C43.146 5.904 43.214 6.192 43.214 6.48C43.214 6.484 43.214 6.49 43.214 6.498C43.214 6.506 43.214 6.514 43.214 6.522H41.924C41.924 6.502 41.922 6.48 41.918 6.456C41.914 6.428 41.91 6.402 41.906 6.378C41.874 6.142 41.782 5.932 41.63 5.748C41.478 5.564 41.278 5.418 41.03 5.31C40.782 5.202 40.492 5.148 40.16 5.148C39.796 5.148 39.46 5.228 39.152 5.388C38.848 5.544 38.604 5.782 38.42 6.102C38.236 6.422 38.144 6.822 38.144 7.302C38.144 7.782 38.234 8.186 38.414 8.514C38.598 8.838 38.842 9.084 39.146 9.252C39.454 9.42 39.792 9.504 40.16 9.504C40.556 9.504 40.88 9.444 41.132 9.324C41.384 9.2 41.574 9.036 41.702 8.832C41.83 8.624 41.904 8.4 41.924 8.16H43.214C43.214 8.448 43.148 8.74 43.016 9.036C42.884 9.328 42.69 9.594 42.434 9.834C42.178 10.074 41.86 10.266 41.48 10.41C41.104 10.554 40.668 10.626 40.172 10.626ZM49.3143 10.5V8.166C49.3143 8.062 49.3143 7.936 49.3143 7.788C49.3143 7.64 49.3143 7.49 49.3143 7.338C49.3143 7.182 49.3143 7.052 49.3143 6.948C49.3143 6.376 49.1963 5.942 48.9603 5.646C48.7283 5.35 48.3463 5.202 47.8143 5.202C47.4583 5.202 47.1503 5.272 46.8903 5.412C46.6303 5.552 46.4283 5.744 46.2843 5.988C46.1443 6.232 46.0743 6.51 46.0743 6.822L45.4623 6.57C45.4623 6.086 45.5783 5.654 45.8103 5.274C46.0463 4.89 46.3683 4.586 46.7763 4.362C47.1883 4.138 47.6583 4.026 48.1863 4.026C48.9543 4.026 49.5503 4.256 49.9743 4.716C50.4023 5.172 50.6163 5.808 50.6163 6.624C50.6163 6.832 50.6163 7.078 50.6163 7.362C50.6163 7.642 50.6163 7.948 50.6163 8.28V10.5H49.3143ZM44.7723 10.5V1.122H46.0743V10.5H44.7723Z" fill="#9972FF"/>
</svg>
