<svg width="51" height="50" viewBox="0 0 51 50" fill="none" xmlns="http://www.w3.org/2000/svg">
<path fill-rule="evenodd" clip-rule="evenodd" d="M44.25 5C44.9404 5 45.5 5.55964 45.5 6.25V43.75C45.5 44.4404 44.9404 45 44.25 45H6.75C6.05964 45 5.5 44.4404 5.5 43.75V6.25C5.5 5.55964 6.05964 5 6.75 5H44.25ZM42.375 8.125H8.625V41.875H42.375V8.125Z" fill="#02E7B8"/>
<path fill-rule="evenodd" clip-rule="evenodd" d="M8.625 8.125H42.375V41.875H8.625V8.125ZM12.375 25.9375V24.0625C12.375 23.7173 12.6548 23.4375 13 23.4375H38C38.3452 23.4375 38.625 23.7173 38.625 24.0625V25.9375C38.625 26.2827 38.3452 26.5625 38 26.5625H13C12.6548 26.5625 12.375 26.2827 12.375 25.9375ZM12.375 16.25V14.375C12.375 14.0298 12.6548 13.75 13 13.75H29.25C29.5952 13.75 29.875 14.0298 29.875 14.375V16.25C29.875 16.5952 29.5952 16.875 29.25 16.875H13C12.6548 16.875 12.375 16.5952 12.375 16.25ZM12.375 35.625V33.75C12.375 33.4048 12.6548 33.125 13 33.125H23C23.3452 33.125 23.625 33.4048 23.625 33.75V35.625C23.625 35.9702 23.3452 36.25 23 36.25H13C12.6548 36.25 12.375 35.9702 12.375 35.625Z" fill="#02E7B8"/>
</svg>
