<svg width="51" height="50" viewBox="0 0 51 50" fill="none" xmlns="http://www.w3.org/2000/svg">
<path fill-rule="evenodd" clip-rule="evenodd" d="M5.5 5.625C5.5 5.27982 5.77982 5 6.125 5H8C8.34518 5 8.625 5.27982 8.625 5.625V41.875H44.875C45.2202 41.875 45.5 42.1548 45.5 42.5V44.375C45.5 44.7202 45.2202 45 44.875 45H5.5V5.625Z" fill="#02E7B8"/>
<path d="M15.7692 31.291C16.0121 31.5362 16.4078 31.5381 16.653 31.2952L23.4821 24.5299L30.1031 30.9302C30.3552 31.1739 30.7583 31.1626 30.9964 30.9052L39.4545 21.7594L41.9039 24.2088C42.2976 24.6025 42.9708 24.3237 42.9708 23.7669V16.5127C42.9708 16.1676 42.691 15.8877 42.3458 15.8877H35.0917C34.5349 15.8877 34.256 16.5609 34.6497 16.9547L37.2431 19.548L30.4375 26.907L23.8951 20.5827C23.6507 20.3465 23.2623 20.3488 23.0209 20.5881L14.4537 29.0751C14.2085 29.318 14.2067 29.7138 14.4496 29.959L15.7692 31.291Z" fill="#02E7B8"/>
</svg>
